<?xml version="1.0" standalone="no"?>
<!DOCTYPE svg PUBLIC "-//W3C//DTD SVG 20010904//EN"
 "http://www.w3.org/TR/2001/REC-SVG-20010904/DTD/svg10.dtd">
<svg version="1.0" xmlns="http://www.w3.org/2000/svg"
 width="500.000000pt" height="500.000000pt" viewBox="0 0 500.000000 500.000000"
 preserveAspectRatio="xMidYMid meet">
<metadata>
Created by potrace 1.14, written by Peter Selinger 2001-2017
</metadata>
<g transform="translate(0.000000,500.000000) scale(0.100000,-0.100000)"
fill="#000000" stroke="none">
<path d="M1870 4885 c0 -45 0 -45 -35 -45 l-35 0 0 -115 0 -115 35 0 c34 0 35
-1 35 -40 0 -39 -1 -40 -35 -40 -34 0 -35 -1 -35 -40 l0 -40 -45 0 -45 0 0
-155 0 -155 45 0 45 0 0 -40 c0 -39 1 -40 35 -40 34 0 35 -1 35 -40 l0 -40 40
0 c39 0 40 -1 40 -35 0 -34 -1 -35 -40 -35 l-40 0 0 -40 c0 -39 -1 -40 -35
-40 l-35 0 0 -80 0 -80 -40 0 -40 0 0 -658 c0 -363 -3 -714 -7 -780 l-6 -122
46 0 47 0 0 -585 0 -585 -40 0 -40 0 0 -155 0 -155 -40 0 -40 0 0 -200 0 -200
40 0 c39 0 40 -1 40 -35 l0 -35 155 0 155 0 0 -45 0 -45 470 0 470 0 0 45 0
45 155 0 155 0 0 35 c0 34 1 35 40 35 l40 0 0 200 0 200 -40 0 -40 0 0 155 0
155 -40 0 -40 0 0 585 0 585 43 0 44 0 -5 390 -5 390 42 0 41 0 0 -40 0 -40
80 0 80 0 0 40 c0 39 1 40 35 40 34 0 35 1 35 40 l0 40 40 0 40 0 0 40 0 40
40 0 40 0 0 40 0 40 40 0 40 0 0 310 0 310 -40 0 -40 0 0 40 0 40 -40 0 -40 0
0 75 0 75 -40 0 -40 0 0 40 c0 39 -1 40 -35 40 -35 0 -35 0 -35 45 l0 45 -315
0 -315 0 0 -45 0 -45 -80 0 -80 0 0 -40 0 -40 -75 0 -75 0 0 -35 0 -35 -80 0
-80 0 0 115 0 115 -40 0 -40 0 0 40 c0 39 -1 40 -35 40 -34 0 -35 1 -35 40 l0
40 -80 0 -80 0 0 40 0 40 40 0 40 0 0 195 0 195 -40 0 c-39 0 -40 1 -40 35 0
34 -1 35 -40 35 l-40 0 0 45 0 45 -80 0 -80 0 0 -45z m826 -1887 c3 -4 -1 -5
-10 -4 -8 1 -18 5 -22 8 -3 4 1 5 10 4 8 -1 18 -5 22 -8z m44 -132 c0 -2 -8
-10 -17 -17 -16 -13 -17 -12 -4 4 13 16 21 21 21 13z"/>
</g>
</svg>
